<mxfile host="app.diagrams.net" agent="Mozilla/5.0 (Windows NT 10.0; Win64; x64) AppleWebKit/537.36 (KHTML, like Gecko) Chrome/135.0.0.0 Safari/537.36" version="26.2.9">
  <diagram name="Page-1" id="KKcyC24oBG7tnMkPtRQ6">
    <mxGraphModel dx="524" dy="571" grid="1" gridSize="10" guides="1" tooltips="1" connect="1" arrows="1" fold="1" page="1" pageScale="1" pageWidth="827" pageHeight="1169" math="0" shadow="0">
      <root>
        <mxCell id="0" />
        <mxCell id="1" parent="0" />
        <mxCell id="qsOcGmcsThObNX1l_5kZ-1" value="" style="group" vertex="1" connectable="0" parent="1">
          <mxGeometry x="1180" y="830" width="230" height="110" as="geometry" />
        </mxCell>
        <mxCell id="qsOcGmcsThObNX1l_5kZ-2" value="" style="rounded=1;whiteSpace=wrap;html=1;" vertex="1" parent="1">
          <mxGeometry x="1510" y="140" width="260" height="540" as="geometry" />
        </mxCell>
        <mxCell id="qsOcGmcsThObNX1l_5kZ-3" value="User&lt;div&gt;&lt;br&gt;&lt;/div&gt;" style="shape=umlActor;verticalLabelPosition=bottom;verticalAlign=top;html=1;outlineConnect=0;" vertex="1" parent="1">
          <mxGeometry x="1360" y="588" width="30" height="60" as="geometry" />
        </mxCell>
        <mxCell id="qsOcGmcsThObNX1l_5kZ-4" value="&lt;div&gt;&lt;span style=&quot;font-size: 18px;&quot;&gt;Users&lt;/span&gt;&lt;/div&gt;" style="rounded=0;whiteSpace=wrap;html=1;" vertex="1" parent="1">
          <mxGeometry x="1580" y="140" width="120" height="60" as="geometry" />
        </mxCell>
        <mxCell id="qsOcGmcsThObNX1l_5kZ-5" value="&lt;span style=&quot;font-size: 18px;&quot;&gt;Create&lt;/span&gt;" style="ellipse;whiteSpace=wrap;html=1;" vertex="1" parent="1">
          <mxGeometry x="1580" y="220" width="120" height="80" as="geometry" />
        </mxCell>
        <mxCell id="qsOcGmcsThObNX1l_5kZ-6" value="&lt;div&gt;Manager&lt;/div&gt;" style="shape=umlActor;verticalLabelPosition=bottom;verticalAlign=top;html=1;outlineConnect=0;" vertex="1" parent="1">
          <mxGeometry x="1360" y="230" width="30" height="60" as="geometry" />
        </mxCell>
        <mxCell id="qsOcGmcsThObNX1l_5kZ-7" value="&lt;div&gt;Admin&lt;/div&gt;" style="shape=umlActor;verticalLabelPosition=bottom;verticalAlign=top;html=1;outlineConnect=0;" vertex="1" parent="1">
          <mxGeometry x="1370" y="410" width="30" height="60" as="geometry" />
        </mxCell>
        <mxCell id="qsOcGmcsThObNX1l_5kZ-8" value="&lt;span style=&quot;font-size: 18px;&quot;&gt;Edit&lt;/span&gt;" style="ellipse;whiteSpace=wrap;html=1;" vertex="1" parent="1">
          <mxGeometry x="1580" y="310" width="120" height="80" as="geometry" />
        </mxCell>
        <mxCell id="qsOcGmcsThObNX1l_5kZ-9" value="&lt;span style=&quot;font-size: 18px;&quot;&gt;Delete&lt;/span&gt;" style="ellipse;whiteSpace=wrap;html=1;" vertex="1" parent="1">
          <mxGeometry x="1580" y="400" width="120" height="80" as="geometry" />
        </mxCell>
        <mxCell id="qsOcGmcsThObNX1l_5kZ-10" value="&lt;span style=&quot;font-size: 18px;&quot;&gt;Read_all&lt;/span&gt;" style="ellipse;whiteSpace=wrap;html=1;" vertex="1" parent="1">
          <mxGeometry x="1580" y="490" width="120" height="80" as="geometry" />
        </mxCell>
        <mxCell id="qsOcGmcsThObNX1l_5kZ-11" value="&lt;span style=&quot;font-size: 18px;&quot;&gt;Read_one&lt;/span&gt;" style="ellipse;whiteSpace=wrap;html=1;" vertex="1" parent="1">
          <mxGeometry x="1580" y="580" width="120" height="80" as="geometry" />
        </mxCell>
        <mxCell id="qsOcGmcsThObNX1l_5kZ-12" value="" style="endArrow=none;html=1;rounded=0;entryX=0;entryY=0.5;entryDx=0;entryDy=0;" edge="1" parent="1" source="qsOcGmcsThObNX1l_5kZ-3" target="qsOcGmcsThObNX1l_5kZ-5">
          <mxGeometry width="50" height="50" relative="1" as="geometry">
            <mxPoint x="1620" y="420" as="sourcePoint" />
            <mxPoint x="1670" y="370" as="targetPoint" />
          </mxGeometry>
        </mxCell>
        <mxCell id="qsOcGmcsThObNX1l_5kZ-13" value="" style="endArrow=none;html=1;rounded=0;entryX=0;entryY=0.5;entryDx=0;entryDy=0;" edge="1" parent="1" source="qsOcGmcsThObNX1l_5kZ-6" target="qsOcGmcsThObNX1l_5kZ-5">
          <mxGeometry width="50" height="50" relative="1" as="geometry">
            <mxPoint x="1430" y="458" as="sourcePoint" />
            <mxPoint x="1600" y="430" as="targetPoint" />
          </mxGeometry>
        </mxCell>
        <mxCell id="qsOcGmcsThObNX1l_5kZ-14" value="" style="endArrow=none;html=1;rounded=0;exitX=0;exitY=0.5;exitDx=0;exitDy=0;" edge="1" parent="1" source="qsOcGmcsThObNX1l_5kZ-5" target="qsOcGmcsThObNX1l_5kZ-7">
          <mxGeometry width="50" height="50" relative="1" as="geometry">
            <mxPoint x="1430" y="308" as="sourcePoint" />
            <mxPoint x="1600" y="280" as="targetPoint" />
          </mxGeometry>
        </mxCell>
        <mxCell id="qsOcGmcsThObNX1l_5kZ-15" value="" style="endArrow=none;html=1;rounded=0;exitX=0;exitY=0.5;exitDx=0;exitDy=0;" edge="1" parent="1" source="qsOcGmcsThObNX1l_5kZ-8" target="qsOcGmcsThObNX1l_5kZ-7">
          <mxGeometry width="50" height="50" relative="1" as="geometry">
            <mxPoint x="1440" y="318" as="sourcePoint" />
            <mxPoint x="1610" y="290" as="targetPoint" />
          </mxGeometry>
        </mxCell>
        <mxCell id="qsOcGmcsThObNX1l_5kZ-16" value="" style="endArrow=none;html=1;rounded=0;exitX=0;exitY=0.5;exitDx=0;exitDy=0;" edge="1" parent="1" source="qsOcGmcsThObNX1l_5kZ-9" target="qsOcGmcsThObNX1l_5kZ-7">
          <mxGeometry width="50" height="50" relative="1" as="geometry">
            <mxPoint x="1450" y="328" as="sourcePoint" />
            <mxPoint x="1620" y="300" as="targetPoint" />
          </mxGeometry>
        </mxCell>
        <mxCell id="qsOcGmcsThObNX1l_5kZ-17" value="" style="endArrow=none;html=1;rounded=0;exitX=0;exitY=0.5;exitDx=0;exitDy=0;" edge="1" parent="1" source="qsOcGmcsThObNX1l_5kZ-10" target="qsOcGmcsThObNX1l_5kZ-7">
          <mxGeometry width="50" height="50" relative="1" as="geometry">
            <mxPoint x="1460" y="338" as="sourcePoint" />
            <mxPoint x="1630" y="310" as="targetPoint" />
          </mxGeometry>
        </mxCell>
        <mxCell id="qsOcGmcsThObNX1l_5kZ-18" value="" style="endArrow=none;html=1;rounded=0;exitX=0;exitY=0.5;exitDx=0;exitDy=0;" edge="1" parent="1" source="qsOcGmcsThObNX1l_5kZ-11" target="qsOcGmcsThObNX1l_5kZ-7">
          <mxGeometry width="50" height="50" relative="1" as="geometry">
            <mxPoint x="1470" y="348" as="sourcePoint" />
            <mxPoint x="1640" y="320" as="targetPoint" />
          </mxGeometry>
        </mxCell>
        <mxCell id="qsOcGmcsThObNX1l_5kZ-19" value="" style="endArrow=none;html=1;rounded=0;entryX=0;entryY=0.5;entryDx=0;entryDy=0;" edge="1" parent="1" source="qsOcGmcsThObNX1l_5kZ-3" target="qsOcGmcsThObNX1l_5kZ-8">
          <mxGeometry width="50" height="50" relative="1" as="geometry">
            <mxPoint x="1480" y="358" as="sourcePoint" />
            <mxPoint x="1650" y="330" as="targetPoint" />
          </mxGeometry>
        </mxCell>
        <mxCell id="qsOcGmcsThObNX1l_5kZ-20" value="" style="endArrow=none;html=1;rounded=0;entryX=0;entryY=0.5;entryDx=0;entryDy=0;" edge="1" parent="1" source="qsOcGmcsThObNX1l_5kZ-3" target="qsOcGmcsThObNX1l_5kZ-9">
          <mxGeometry width="50" height="50" relative="1" as="geometry">
            <mxPoint x="1490" y="368" as="sourcePoint" />
            <mxPoint x="1660" y="340" as="targetPoint" />
          </mxGeometry>
        </mxCell>
        <mxCell id="qsOcGmcsThObNX1l_5kZ-21" value="" style="endArrow=none;html=1;rounded=0;entryX=0;entryY=0.5;entryDx=0;entryDy=0;" edge="1" parent="1" source="qsOcGmcsThObNX1l_5kZ-3" target="qsOcGmcsThObNX1l_5kZ-11">
          <mxGeometry width="50" height="50" relative="1" as="geometry">
            <mxPoint x="1500" y="378" as="sourcePoint" />
            <mxPoint x="1670" y="350" as="targetPoint" />
          </mxGeometry>
        </mxCell>
        <mxCell id="qsOcGmcsThObNX1l_5kZ-22" value="" style="group" vertex="1" connectable="0" parent="1">
          <mxGeometry x="1790" y="1530" width="230" height="110" as="geometry" />
        </mxCell>
        <mxCell id="qsOcGmcsThObNX1l_5kZ-23" value="" style="group" vertex="1" connectable="0" parent="qsOcGmcsThObNX1l_5kZ-22">
          <mxGeometry width="230" height="110" as="geometry" />
        </mxCell>
        <mxCell id="qsOcGmcsThObNX1l_5kZ-24" style="edgeStyle=orthogonalEdgeStyle;rounded=0;orthogonalLoop=1;jettySize=auto;html=1;exitX=0.5;exitY=1;exitDx=0;exitDy=0;exitPerimeter=0;" edge="1" parent="qsOcGmcsThObNX1l_5kZ-23">
          <mxGeometry relative="1" as="geometry">
            <mxPoint x="114.99999999999955" y="110.00000000000023" as="sourcePoint" />
            <mxPoint x="114.99999999999955" y="110.00000000000023" as="targetPoint" />
          </mxGeometry>
        </mxCell>
        <mxCell id="qsOcGmcsThObNX1l_5kZ-25" value="" style="group" vertex="1" connectable="0" parent="1">
          <mxGeometry x="3020" y="1560" width="230" height="110" as="geometry" />
        </mxCell>
        <mxCell id="qsOcGmcsThObNX1l_5kZ-26" value="" style="group" vertex="1" connectable="0" parent="qsOcGmcsThObNX1l_5kZ-25">
          <mxGeometry width="230" height="110" as="geometry" />
        </mxCell>
        <mxCell id="qsOcGmcsThObNX1l_5kZ-27" style="edgeStyle=orthogonalEdgeStyle;rounded=0;orthogonalLoop=1;jettySize=auto;html=1;exitX=0.5;exitY=1;exitDx=0;exitDy=0;exitPerimeter=0;" edge="1" parent="qsOcGmcsThObNX1l_5kZ-26">
          <mxGeometry relative="1" as="geometry">
            <mxPoint x="114.99999999999955" y="110.00000000000023" as="sourcePoint" />
            <mxPoint x="114.99999999999955" y="110.00000000000023" as="targetPoint" />
          </mxGeometry>
        </mxCell>
        <mxCell id="qsOcGmcsThObNX1l_5kZ-28" value="" style="rounded=1;whiteSpace=wrap;html=1;" vertex="1" parent="1">
          <mxGeometry x="1020" y="170" width="260" height="510" as="geometry" />
        </mxCell>
        <mxCell id="qsOcGmcsThObNX1l_5kZ-29" value="User&lt;div&gt;&lt;br&gt;&lt;/div&gt;" style="shape=umlActor;verticalLabelPosition=bottom;verticalAlign=top;html=1;outlineConnect=0;" vertex="1" parent="1">
          <mxGeometry x="920" y="520" width="30" height="60" as="geometry" />
        </mxCell>
        <mxCell id="qsOcGmcsThObNX1l_5kZ-30" value="&lt;font style=&quot;font-size: 18px;&quot;&gt;Auth&lt;/font&gt;&lt;div&gt;&lt;br&gt;&lt;/div&gt;" style="rounded=0;whiteSpace=wrap;html=1;" vertex="1" parent="1">
          <mxGeometry x="1090" y="170" width="120" height="60" as="geometry" />
        </mxCell>
        <mxCell id="qsOcGmcsThObNX1l_5kZ-31" value="" style="ellipse;whiteSpace=wrap;html=1;" vertex="1" parent="1">
          <mxGeometry x="1090" y="385" width="120" height="80" as="geometry" />
        </mxCell>
        <mxCell id="qsOcGmcsThObNX1l_5kZ-32" value="&lt;font style=&quot;font-size: 18px;&quot;&gt;Login&lt;/font&gt;" style="text;html=1;align=center;verticalAlign=middle;whiteSpace=wrap;rounded=0;" vertex="1" parent="1">
          <mxGeometry x="1121" y="410" width="60" height="30" as="geometry" />
        </mxCell>
        <mxCell id="qsOcGmcsThObNX1l_5kZ-33" value="&lt;div&gt;Manager&lt;/div&gt;" style="shape=umlActor;verticalLabelPosition=bottom;verticalAlign=top;html=1;outlineConnect=0;" vertex="1" parent="1">
          <mxGeometry x="920" y="395" width="30" height="60" as="geometry" />
        </mxCell>
        <mxCell id="qsOcGmcsThObNX1l_5kZ-34" value="&lt;div&gt;Admin&lt;/div&gt;" style="shape=umlActor;verticalLabelPosition=bottom;verticalAlign=top;html=1;outlineConnect=0;" vertex="1" parent="1">
          <mxGeometry x="920" y="280" width="30" height="60" as="geometry" />
        </mxCell>
        <mxCell id="qsOcGmcsThObNX1l_5kZ-35" value="" style="endArrow=none;html=1;rounded=0;entryX=0;entryY=0.5;entryDx=0;entryDy=0;" edge="1" parent="1" source="qsOcGmcsThObNX1l_5kZ-33" target="qsOcGmcsThObNX1l_5kZ-31">
          <mxGeometry width="50" height="50" relative="1" as="geometry">
            <mxPoint x="1090" y="540" as="sourcePoint" />
            <mxPoint x="1140" y="490" as="targetPoint" />
          </mxGeometry>
        </mxCell>
        <mxCell id="qsOcGmcsThObNX1l_5kZ-36" value="" style="endArrow=none;html=1;rounded=0;entryX=0;entryY=0.5;entryDx=0;entryDy=0;" edge="1" parent="1" source="qsOcGmcsThObNX1l_5kZ-29" target="qsOcGmcsThObNX1l_5kZ-31">
          <mxGeometry width="50" height="50" relative="1" as="geometry">
            <mxPoint x="920" y="324" as="sourcePoint" />
            <mxPoint x="1108" y="290" as="targetPoint" />
          </mxGeometry>
        </mxCell>
        <mxCell id="qsOcGmcsThObNX1l_5kZ-37" value="" style="endArrow=none;html=1;rounded=0;exitX=0;exitY=0.5;exitDx=0;exitDy=0;" edge="1" parent="1" source="qsOcGmcsThObNX1l_5kZ-31" target="qsOcGmcsThObNX1l_5kZ-34">
          <mxGeometry width="50" height="50" relative="1" as="geometry">
            <mxPoint x="1220" y="410" as="sourcePoint" />
            <mxPoint x="1408" y="376" as="targetPoint" />
          </mxGeometry>
        </mxCell>
        <mxCell id="qsOcGmcsThObNX1l_5kZ-38" value="" style="group" vertex="1" connectable="0" parent="1">
          <mxGeometry x="2700" y="1040" width="230" height="110" as="geometry" />
        </mxCell>
        <mxCell id="qsOcGmcsThObNX1l_5kZ-39" value="" style="group" vertex="1" connectable="0" parent="qsOcGmcsThObNX1l_5kZ-38">
          <mxGeometry width="230" height="110" as="geometry" />
        </mxCell>
        <mxCell id="qsOcGmcsThObNX1l_5kZ-40" style="edgeStyle=orthogonalEdgeStyle;rounded=0;orthogonalLoop=1;jettySize=auto;html=1;exitX=0.5;exitY=1;exitDx=0;exitDy=0;exitPerimeter=0;" edge="1" parent="qsOcGmcsThObNX1l_5kZ-39">
          <mxGeometry relative="1" as="geometry">
            <mxPoint x="114.99999999999955" y="110.00000000000023" as="sourcePoint" />
            <mxPoint x="114.99999999999955" y="110.00000000000023" as="targetPoint" />
          </mxGeometry>
        </mxCell>
        <mxCell id="qsOcGmcsThObNX1l_5kZ-43" value="" style="rounded=1;whiteSpace=wrap;html=1;" vertex="1" parent="1">
          <mxGeometry x="2060" y="140" width="260" height="540" as="geometry" />
        </mxCell>
        <mxCell id="qsOcGmcsThObNX1l_5kZ-44" value="User&lt;div&gt;&lt;br&gt;&lt;/div&gt;" style="shape=umlActor;verticalLabelPosition=bottom;verticalAlign=top;html=1;outlineConnect=0;" vertex="1" parent="1">
          <mxGeometry x="1910" y="590" width="30" height="60" as="geometry" />
        </mxCell>
        <mxCell id="qsOcGmcsThObNX1l_5kZ-45" value="&lt;div&gt;&lt;span style=&quot;font-size: 18px;&quot;&gt;Restaurants&lt;/span&gt;&lt;/div&gt;" style="rounded=0;whiteSpace=wrap;html=1;" vertex="1" parent="1">
          <mxGeometry x="2130" y="140" width="120" height="60" as="geometry" />
        </mxCell>
        <mxCell id="qsOcGmcsThObNX1l_5kZ-46" value="&lt;span style=&quot;font-size: 18px;&quot;&gt;Create&lt;/span&gt;" style="ellipse;whiteSpace=wrap;html=1;" vertex="1" parent="1">
          <mxGeometry x="2130" y="220" width="120" height="80" as="geometry" />
        </mxCell>
        <mxCell id="qsOcGmcsThObNX1l_5kZ-47" value="&lt;div&gt;Manager&lt;/div&gt;" style="shape=umlActor;verticalLabelPosition=bottom;verticalAlign=top;html=1;outlineConnect=0;" vertex="1" parent="1">
          <mxGeometry x="1910" y="410" width="30" height="60" as="geometry" />
        </mxCell>
        <mxCell id="qsOcGmcsThObNX1l_5kZ-48" value="&lt;div&gt;Admin&lt;/div&gt;" style="shape=umlActor;verticalLabelPosition=bottom;verticalAlign=top;html=1;outlineConnect=0;" vertex="1" parent="1">
          <mxGeometry x="1910" y="230" width="30" height="60" as="geometry" />
        </mxCell>
        <mxCell id="qsOcGmcsThObNX1l_5kZ-49" value="&lt;span style=&quot;font-size: 18px;&quot;&gt;Edit&lt;/span&gt;" style="ellipse;whiteSpace=wrap;html=1;" vertex="1" parent="1">
          <mxGeometry x="2130" y="310" width="120" height="80" as="geometry" />
        </mxCell>
        <mxCell id="qsOcGmcsThObNX1l_5kZ-50" value="&lt;span style=&quot;font-size: 18px;&quot;&gt;Delete&lt;/span&gt;" style="ellipse;whiteSpace=wrap;html=1;" vertex="1" parent="1">
          <mxGeometry x="2130" y="400" width="120" height="80" as="geometry" />
        </mxCell>
        <mxCell id="qsOcGmcsThObNX1l_5kZ-51" value="&lt;span style=&quot;font-size: 18px;&quot;&gt;Read_all&lt;/span&gt;" style="ellipse;whiteSpace=wrap;html=1;" vertex="1" parent="1">
          <mxGeometry x="2130" y="490" width="120" height="80" as="geometry" />
        </mxCell>
        <mxCell id="qsOcGmcsThObNX1l_5kZ-52" value="&lt;span style=&quot;font-size: 18px;&quot;&gt;Read_one&lt;/span&gt;" style="ellipse;whiteSpace=wrap;html=1;" vertex="1" parent="1">
          <mxGeometry x="2130" y="580" width="120" height="80" as="geometry" />
        </mxCell>
        <mxCell id="qsOcGmcsThObNX1l_5kZ-55" value="" style="endArrow=none;html=1;rounded=0;entryX=0;entryY=0.5;entryDx=0;entryDy=0;" edge="1" parent="1" source="qsOcGmcsThObNX1l_5kZ-47" target="qsOcGmcsThObNX1l_5kZ-46">
          <mxGeometry width="50" height="50" relative="1" as="geometry">
            <mxPoint x="2100" y="420" as="sourcePoint" />
            <mxPoint x="2150" y="370" as="targetPoint" />
          </mxGeometry>
        </mxCell>
        <mxCell id="qsOcGmcsThObNX1l_5kZ-56" value="" style="endArrow=none;html=1;rounded=0;entryX=0;entryY=0.5;entryDx=0;entryDy=0;" edge="1" parent="1" source="qsOcGmcsThObNX1l_5kZ-48" target="qsOcGmcsThObNX1l_5kZ-46">
          <mxGeometry width="50" height="50" relative="1" as="geometry">
            <mxPoint x="1970" y="555" as="sourcePoint" />
            <mxPoint x="2140" y="564" as="targetPoint" />
          </mxGeometry>
        </mxCell>
        <mxCell id="qsOcGmcsThObNX1l_5kZ-57" value="" style="endArrow=none;html=1;rounded=0;entryX=0;entryY=0.5;entryDx=0;entryDy=0;" edge="1" parent="1" source="qsOcGmcsThObNX1l_5kZ-47" target="qsOcGmcsThObNX1l_5kZ-49">
          <mxGeometry width="50" height="50" relative="1" as="geometry">
            <mxPoint x="1980" y="271" as="sourcePoint" />
            <mxPoint x="2150" y="280" as="targetPoint" />
          </mxGeometry>
        </mxCell>
        <mxCell id="qsOcGmcsThObNX1l_5kZ-58" value="" style="endArrow=none;html=1;rounded=0;entryX=0;entryY=0.5;entryDx=0;entryDy=0;" edge="1" parent="1" source="qsOcGmcsThObNX1l_5kZ-47" target="qsOcGmcsThObNX1l_5kZ-50">
          <mxGeometry width="50" height="50" relative="1" as="geometry">
            <mxPoint x="1990" y="281" as="sourcePoint" />
            <mxPoint x="2160" y="290" as="targetPoint" />
          </mxGeometry>
        </mxCell>
        <mxCell id="qsOcGmcsThObNX1l_5kZ-59" value="" style="endArrow=none;html=1;rounded=0;entryX=0;entryY=0.5;entryDx=0;entryDy=0;" edge="1" parent="1" source="qsOcGmcsThObNX1l_5kZ-47" target="qsOcGmcsThObNX1l_5kZ-52">
          <mxGeometry width="50" height="50" relative="1" as="geometry">
            <mxPoint x="2000" y="291" as="sourcePoint" />
            <mxPoint x="2170" y="300" as="targetPoint" />
          </mxGeometry>
        </mxCell>
        <mxCell id="qsOcGmcsThObNX1l_5kZ-60" value="" style="endArrow=none;html=1;rounded=0;entryX=0;entryY=0.5;entryDx=0;entryDy=0;" edge="1" parent="1" source="qsOcGmcsThObNX1l_5kZ-44" target="qsOcGmcsThObNX1l_5kZ-51">
          <mxGeometry width="50" height="50" relative="1" as="geometry">
            <mxPoint x="2010" y="301" as="sourcePoint" />
            <mxPoint x="2180" y="310" as="targetPoint" />
          </mxGeometry>
        </mxCell>
        <mxCell id="qsOcGmcsThObNX1l_5kZ-61" value="" style="endArrow=none;html=1;rounded=0;entryX=0;entryY=0.5;entryDx=0;entryDy=0;" edge="1" parent="1" source="qsOcGmcsThObNX1l_5kZ-44" target="qsOcGmcsThObNX1l_5kZ-52">
          <mxGeometry width="50" height="50" relative="1" as="geometry">
            <mxPoint x="2020" y="311" as="sourcePoint" />
            <mxPoint x="2190" y="320" as="targetPoint" />
          </mxGeometry>
        </mxCell>
        <mxCell id="qsOcGmcsThObNX1l_5kZ-62" value="" style="endArrow=none;html=1;rounded=0;entryX=0;entryY=0.5;entryDx=0;entryDy=0;" edge="1" parent="1" source="qsOcGmcsThObNX1l_5kZ-48" target="qsOcGmcsThObNX1l_5kZ-49">
          <mxGeometry width="50" height="50" relative="1" as="geometry">
            <mxPoint x="2030" y="321" as="sourcePoint" />
            <mxPoint x="2200" y="330" as="targetPoint" />
          </mxGeometry>
        </mxCell>
        <mxCell id="qsOcGmcsThObNX1l_5kZ-63" value="" style="endArrow=none;html=1;rounded=0;entryX=0;entryY=0.5;entryDx=0;entryDy=0;" edge="1" parent="1" source="qsOcGmcsThObNX1l_5kZ-48" target="qsOcGmcsThObNX1l_5kZ-50">
          <mxGeometry width="50" height="50" relative="1" as="geometry">
            <mxPoint x="2040" y="331" as="sourcePoint" />
            <mxPoint x="2210" y="340" as="targetPoint" />
          </mxGeometry>
        </mxCell>
        <mxCell id="qsOcGmcsThObNX1l_5kZ-64" value="" style="endArrow=none;html=1;rounded=0;entryX=0;entryY=0.5;entryDx=0;entryDy=0;" edge="1" parent="1" source="qsOcGmcsThObNX1l_5kZ-48" target="qsOcGmcsThObNX1l_5kZ-52">
          <mxGeometry width="50" height="50" relative="1" as="geometry">
            <mxPoint x="2050" y="341" as="sourcePoint" />
            <mxPoint x="2220" y="350" as="targetPoint" />
          </mxGeometry>
        </mxCell>
        <mxCell id="qsOcGmcsThObNX1l_5kZ-65" value="" style="rounded=1;whiteSpace=wrap;html=1;" vertex="1" parent="1">
          <mxGeometry x="2620" y="124" width="260" height="540" as="geometry" />
        </mxCell>
        <mxCell id="qsOcGmcsThObNX1l_5kZ-66" value="User&lt;div&gt;&lt;br&gt;&lt;/div&gt;" style="shape=umlActor;verticalLabelPosition=bottom;verticalAlign=top;html=1;outlineConnect=0;" vertex="1" parent="1">
          <mxGeometry x="2470" y="574" width="30" height="60" as="geometry" />
        </mxCell>
        <mxCell id="qsOcGmcsThObNX1l_5kZ-67" value="&lt;div&gt;&lt;span style=&quot;font-size: 18px;&quot;&gt;Categories&lt;/span&gt;&lt;/div&gt;" style="rounded=0;whiteSpace=wrap;html=1;" vertex="1" parent="1">
          <mxGeometry x="2690" y="124" width="120" height="60" as="geometry" />
        </mxCell>
        <mxCell id="qsOcGmcsThObNX1l_5kZ-68" value="&lt;span style=&quot;font-size: 18px;&quot;&gt;Create&lt;/span&gt;" style="ellipse;whiteSpace=wrap;html=1;" vertex="1" parent="1">
          <mxGeometry x="2690" y="204" width="120" height="80" as="geometry" />
        </mxCell>
        <mxCell id="qsOcGmcsThObNX1l_5kZ-69" value="&lt;div&gt;Manager&lt;/div&gt;" style="shape=umlActor;verticalLabelPosition=bottom;verticalAlign=top;html=1;outlineConnect=0;" vertex="1" parent="1">
          <mxGeometry x="2470" y="394" width="30" height="60" as="geometry" />
        </mxCell>
        <mxCell id="qsOcGmcsThObNX1l_5kZ-70" value="&lt;div&gt;Admin&lt;/div&gt;" style="shape=umlActor;verticalLabelPosition=bottom;verticalAlign=top;html=1;outlineConnect=0;" vertex="1" parent="1">
          <mxGeometry x="2470" y="214" width="30" height="60" as="geometry" />
        </mxCell>
        <mxCell id="qsOcGmcsThObNX1l_5kZ-71" value="&lt;span style=&quot;font-size: 18px;&quot;&gt;Edit&lt;/span&gt;" style="ellipse;whiteSpace=wrap;html=1;" vertex="1" parent="1">
          <mxGeometry x="2690" y="294" width="120" height="80" as="geometry" />
        </mxCell>
        <mxCell id="qsOcGmcsThObNX1l_5kZ-72" value="&lt;span style=&quot;font-size: 18px;&quot;&gt;Delete&lt;/span&gt;" style="ellipse;whiteSpace=wrap;html=1;" vertex="1" parent="1">
          <mxGeometry x="2690" y="384" width="120" height="80" as="geometry" />
        </mxCell>
        <mxCell id="qsOcGmcsThObNX1l_5kZ-73" value="&lt;span style=&quot;font-size: 18px;&quot;&gt;Read_all&lt;/span&gt;" style="ellipse;whiteSpace=wrap;html=1;" vertex="1" parent="1">
          <mxGeometry x="2690" y="474" width="120" height="80" as="geometry" />
        </mxCell>
        <mxCell id="qsOcGmcsThObNX1l_5kZ-74" value="&lt;span style=&quot;font-size: 18px;&quot;&gt;Read_one&lt;/span&gt;" style="ellipse;whiteSpace=wrap;html=1;" vertex="1" parent="1">
          <mxGeometry x="2690" y="564" width="120" height="80" as="geometry" />
        </mxCell>
        <mxCell id="qsOcGmcsThObNX1l_5kZ-75" value="" style="endArrow=none;html=1;rounded=0;exitX=0.5;exitY=0.5;exitDx=0;exitDy=0;exitPerimeter=0;entryX=0;entryY=0.5;entryDx=0;entryDy=0;" edge="1" parent="1" source="qsOcGmcsThObNX1l_5kZ-70" target="qsOcGmcsThObNX1l_5kZ-68">
          <mxGeometry width="50" height="50" relative="1" as="geometry">
            <mxPoint x="2740" y="450" as="sourcePoint" />
            <mxPoint x="2790" y="400" as="targetPoint" />
          </mxGeometry>
        </mxCell>
        <mxCell id="qsOcGmcsThObNX1l_5kZ-76" value="" style="endArrow=none;html=1;rounded=0;entryX=0;entryY=0.5;entryDx=0;entryDy=0;" edge="1" parent="1" source="qsOcGmcsThObNX1l_5kZ-70" target="qsOcGmcsThObNX1l_5kZ-71">
          <mxGeometry width="50" height="50" relative="1" as="geometry">
            <mxPoint x="2495" y="244" as="sourcePoint" />
            <mxPoint x="2700" y="254" as="targetPoint" />
          </mxGeometry>
        </mxCell>
        <mxCell id="qsOcGmcsThObNX1l_5kZ-77" value="" style="endArrow=none;html=1;rounded=0;entryX=0;entryY=0.5;entryDx=0;entryDy=0;" edge="1" parent="1" source="qsOcGmcsThObNX1l_5kZ-70" target="qsOcGmcsThObNX1l_5kZ-72">
          <mxGeometry width="50" height="50" relative="1" as="geometry">
            <mxPoint x="2505" y="254" as="sourcePoint" />
            <mxPoint x="2710" y="264" as="targetPoint" />
          </mxGeometry>
        </mxCell>
        <mxCell id="qsOcGmcsThObNX1l_5kZ-78" value="" style="endArrow=none;html=1;rounded=0;entryX=0;entryY=0.5;entryDx=0;entryDy=0;" edge="1" parent="1" source="qsOcGmcsThObNX1l_5kZ-70" target="qsOcGmcsThObNX1l_5kZ-73">
          <mxGeometry width="50" height="50" relative="1" as="geometry">
            <mxPoint x="2515" y="264" as="sourcePoint" />
            <mxPoint x="2720" y="274" as="targetPoint" />
          </mxGeometry>
        </mxCell>
        <mxCell id="qsOcGmcsThObNX1l_5kZ-79" value="" style="endArrow=none;html=1;rounded=0;entryX=0;entryY=0.5;entryDx=0;entryDy=0;" edge="1" parent="1" source="qsOcGmcsThObNX1l_5kZ-70" target="qsOcGmcsThObNX1l_5kZ-74">
          <mxGeometry width="50" height="50" relative="1" as="geometry">
            <mxPoint x="2525" y="274" as="sourcePoint" />
            <mxPoint x="2730" y="284" as="targetPoint" />
          </mxGeometry>
        </mxCell>
        <mxCell id="qsOcGmcsThObNX1l_5kZ-80" value="" style="endArrow=none;html=1;rounded=0;entryX=0;entryY=0.5;entryDx=0;entryDy=0;" edge="1" parent="1" source="qsOcGmcsThObNX1l_5kZ-69" target="qsOcGmcsThObNX1l_5kZ-68">
          <mxGeometry width="50" height="50" relative="1" as="geometry">
            <mxPoint x="2535" y="284" as="sourcePoint" />
            <mxPoint x="2740" y="294" as="targetPoint" />
          </mxGeometry>
        </mxCell>
        <mxCell id="qsOcGmcsThObNX1l_5kZ-81" value="" style="endArrow=none;html=1;rounded=0;entryX=0;entryY=0.5;entryDx=0;entryDy=0;" edge="1" parent="1" source="qsOcGmcsThObNX1l_5kZ-69" target="qsOcGmcsThObNX1l_5kZ-71">
          <mxGeometry width="50" height="50" relative="1" as="geometry">
            <mxPoint x="2545" y="294" as="sourcePoint" />
            <mxPoint x="2750" y="304" as="targetPoint" />
          </mxGeometry>
        </mxCell>
        <mxCell id="qsOcGmcsThObNX1l_5kZ-82" value="" style="endArrow=none;html=1;rounded=0;entryX=0;entryY=0.5;entryDx=0;entryDy=0;" edge="1" parent="1" source="qsOcGmcsThObNX1l_5kZ-69" target="qsOcGmcsThObNX1l_5kZ-72">
          <mxGeometry width="50" height="50" relative="1" as="geometry">
            <mxPoint x="2555" y="304" as="sourcePoint" />
            <mxPoint x="2760" y="314" as="targetPoint" />
          </mxGeometry>
        </mxCell>
        <mxCell id="qsOcGmcsThObNX1l_5kZ-83" value="" style="endArrow=none;html=1;rounded=0;entryX=0;entryY=0.5;entryDx=0;entryDy=0;" edge="1" parent="1" source="qsOcGmcsThObNX1l_5kZ-69" target="qsOcGmcsThObNX1l_5kZ-74">
          <mxGeometry width="50" height="50" relative="1" as="geometry">
            <mxPoint x="2565" y="314" as="sourcePoint" />
            <mxPoint x="2770" y="324" as="targetPoint" />
          </mxGeometry>
        </mxCell>
        <mxCell id="qsOcGmcsThObNX1l_5kZ-84" value="" style="endArrow=none;html=1;rounded=0;entryX=0;entryY=0.5;entryDx=0;entryDy=0;" edge="1" parent="1" source="qsOcGmcsThObNX1l_5kZ-66" target="qsOcGmcsThObNX1l_5kZ-73">
          <mxGeometry width="50" height="50" relative="1" as="geometry">
            <mxPoint x="2575" y="324" as="sourcePoint" />
            <mxPoint x="2780" y="334" as="targetPoint" />
          </mxGeometry>
        </mxCell>
        <mxCell id="qsOcGmcsThObNX1l_5kZ-85" value="" style="endArrow=none;html=1;rounded=0;entryX=0;entryY=0.5;entryDx=0;entryDy=0;" edge="1" parent="1" source="qsOcGmcsThObNX1l_5kZ-66" target="qsOcGmcsThObNX1l_5kZ-74">
          <mxGeometry width="50" height="50" relative="1" as="geometry">
            <mxPoint x="2585" y="334" as="sourcePoint" />
            <mxPoint x="2790" y="344" as="targetPoint" />
          </mxGeometry>
        </mxCell>
        <mxCell id="qsOcGmcsThObNX1l_5kZ-86" value="" style="rounded=1;whiteSpace=wrap;html=1;" vertex="1" parent="1">
          <mxGeometry x="3100" y="120" width="260" height="540" as="geometry" />
        </mxCell>
        <mxCell id="qsOcGmcsThObNX1l_5kZ-87" value="User&lt;div&gt;&lt;br&gt;&lt;/div&gt;" style="shape=umlActor;verticalLabelPosition=bottom;verticalAlign=top;html=1;outlineConnect=0;" vertex="1" parent="1">
          <mxGeometry x="2980" y="570" width="30" height="60" as="geometry" />
        </mxCell>
        <mxCell id="qsOcGmcsThObNX1l_5kZ-88" value="&lt;div&gt;&lt;span style=&quot;font-size: 18px;&quot;&gt;Items&lt;/span&gt;&lt;/div&gt;" style="rounded=0;whiteSpace=wrap;html=1;" vertex="1" parent="1">
          <mxGeometry x="3170" y="120" width="120" height="60" as="geometry" />
        </mxCell>
        <mxCell id="qsOcGmcsThObNX1l_5kZ-89" value="&lt;span style=&quot;font-size: 18px;&quot;&gt;Create&lt;/span&gt;" style="ellipse;whiteSpace=wrap;html=1;" vertex="1" parent="1">
          <mxGeometry x="3170" y="200" width="120" height="80" as="geometry" />
        </mxCell>
        <mxCell id="qsOcGmcsThObNX1l_5kZ-90" value="&lt;div&gt;Manager&lt;/div&gt;" style="shape=umlActor;verticalLabelPosition=bottom;verticalAlign=top;html=1;outlineConnect=0;" vertex="1" parent="1">
          <mxGeometry x="2980" y="390" width="30" height="60" as="geometry" />
        </mxCell>
        <mxCell id="qsOcGmcsThObNX1l_5kZ-91" value="&lt;div&gt;Admin&lt;/div&gt;" style="shape=umlActor;verticalLabelPosition=bottom;verticalAlign=top;html=1;outlineConnect=0;" vertex="1" parent="1">
          <mxGeometry x="2980" y="210" width="30" height="60" as="geometry" />
        </mxCell>
        <mxCell id="qsOcGmcsThObNX1l_5kZ-92" value="&lt;span style=&quot;font-size: 18px;&quot;&gt;Edit&lt;/span&gt;" style="ellipse;whiteSpace=wrap;html=1;" vertex="1" parent="1">
          <mxGeometry x="3170" y="290" width="120" height="80" as="geometry" />
        </mxCell>
        <mxCell id="qsOcGmcsThObNX1l_5kZ-93" value="&lt;span style=&quot;font-size: 18px;&quot;&gt;Delete&lt;/span&gt;" style="ellipse;whiteSpace=wrap;html=1;" vertex="1" parent="1">
          <mxGeometry x="3170" y="380" width="120" height="80" as="geometry" />
        </mxCell>
        <mxCell id="qsOcGmcsThObNX1l_5kZ-94" value="&lt;span style=&quot;font-size: 18px;&quot;&gt;Read_all&lt;/span&gt;" style="ellipse;whiteSpace=wrap;html=1;" vertex="1" parent="1">
          <mxGeometry x="3170" y="470" width="120" height="80" as="geometry" />
        </mxCell>
        <mxCell id="qsOcGmcsThObNX1l_5kZ-95" value="&lt;span style=&quot;font-size: 18px;&quot;&gt;Read_one&lt;/span&gt;" style="ellipse;whiteSpace=wrap;html=1;" vertex="1" parent="1">
          <mxGeometry x="3170" y="560" width="120" height="80" as="geometry" />
        </mxCell>
        <mxCell id="qsOcGmcsThObNX1l_5kZ-96" value="" style="endArrow=none;html=1;rounded=0;entryX=0;entryY=0.5;entryDx=0;entryDy=0;" edge="1" parent="1" source="qsOcGmcsThObNX1l_5kZ-91" target="qsOcGmcsThObNX1l_5kZ-89">
          <mxGeometry width="50" height="50" relative="1" as="geometry">
            <mxPoint x="3140" y="420" as="sourcePoint" />
            <mxPoint x="3190" y="370" as="targetPoint" />
          </mxGeometry>
        </mxCell>
        <mxCell id="qsOcGmcsThObNX1l_5kZ-97" value="" style="endArrow=none;html=1;rounded=0;entryX=0;entryY=0.5;entryDx=0;entryDy=0;" edge="1" parent="1" source="qsOcGmcsThObNX1l_5kZ-91" target="qsOcGmcsThObNX1l_5kZ-92">
          <mxGeometry width="50" height="50" relative="1" as="geometry">
            <mxPoint x="2990" y="241" as="sourcePoint" />
            <mxPoint x="3180" y="250" as="targetPoint" />
          </mxGeometry>
        </mxCell>
        <mxCell id="qsOcGmcsThObNX1l_5kZ-98" value="" style="endArrow=none;html=1;rounded=0;entryX=0;entryY=0.5;entryDx=0;entryDy=0;" edge="1" parent="1" source="qsOcGmcsThObNX1l_5kZ-91" target="qsOcGmcsThObNX1l_5kZ-93">
          <mxGeometry width="50" height="50" relative="1" as="geometry">
            <mxPoint x="3000" y="251" as="sourcePoint" />
            <mxPoint x="3190" y="260" as="targetPoint" />
          </mxGeometry>
        </mxCell>
        <mxCell id="qsOcGmcsThObNX1l_5kZ-99" value="" style="endArrow=none;html=1;rounded=0;entryX=0;entryY=0.5;entryDx=0;entryDy=0;" edge="1" parent="1" source="qsOcGmcsThObNX1l_5kZ-91" target="qsOcGmcsThObNX1l_5kZ-94">
          <mxGeometry width="50" height="50" relative="1" as="geometry">
            <mxPoint x="3010" y="261" as="sourcePoint" />
            <mxPoint x="3200" y="270" as="targetPoint" />
          </mxGeometry>
        </mxCell>
        <mxCell id="qsOcGmcsThObNX1l_5kZ-100" value="" style="endArrow=none;html=1;rounded=0;entryX=0;entryY=0.5;entryDx=0;entryDy=0;" edge="1" parent="1" source="qsOcGmcsThObNX1l_5kZ-91" target="qsOcGmcsThObNX1l_5kZ-95">
          <mxGeometry width="50" height="50" relative="1" as="geometry">
            <mxPoint x="3020" y="271" as="sourcePoint" />
            <mxPoint x="3210" y="280" as="targetPoint" />
          </mxGeometry>
        </mxCell>
        <mxCell id="qsOcGmcsThObNX1l_5kZ-101" value="" style="endArrow=none;html=1;rounded=0;entryX=0;entryY=0.5;entryDx=0;entryDy=0;" edge="1" parent="1" source="qsOcGmcsThObNX1l_5kZ-90" target="qsOcGmcsThObNX1l_5kZ-89">
          <mxGeometry width="50" height="50" relative="1" as="geometry">
            <mxPoint x="3030" y="281" as="sourcePoint" />
            <mxPoint x="3220" y="290" as="targetPoint" />
          </mxGeometry>
        </mxCell>
        <mxCell id="qsOcGmcsThObNX1l_5kZ-102" value="" style="endArrow=none;html=1;rounded=0;entryX=0;entryY=0.5;entryDx=0;entryDy=0;" edge="1" parent="1" source="qsOcGmcsThObNX1l_5kZ-90" target="qsOcGmcsThObNX1l_5kZ-92">
          <mxGeometry width="50" height="50" relative="1" as="geometry">
            <mxPoint x="3040" y="291" as="sourcePoint" />
            <mxPoint x="3230" y="300" as="targetPoint" />
          </mxGeometry>
        </mxCell>
        <mxCell id="qsOcGmcsThObNX1l_5kZ-103" value="" style="endArrow=none;html=1;rounded=0;entryX=0;entryY=0.5;entryDx=0;entryDy=0;" edge="1" parent="1" source="qsOcGmcsThObNX1l_5kZ-90" target="qsOcGmcsThObNX1l_5kZ-93">
          <mxGeometry width="50" height="50" relative="1" as="geometry">
            <mxPoint x="3050" y="301" as="sourcePoint" />
            <mxPoint x="3240" y="310" as="targetPoint" />
          </mxGeometry>
        </mxCell>
        <mxCell id="qsOcGmcsThObNX1l_5kZ-104" value="" style="endArrow=none;html=1;rounded=0;entryX=0;entryY=0.5;entryDx=0;entryDy=0;" edge="1" parent="1" source="qsOcGmcsThObNX1l_5kZ-90" target="qsOcGmcsThObNX1l_5kZ-95">
          <mxGeometry width="50" height="50" relative="1" as="geometry">
            <mxPoint x="3060" y="311" as="sourcePoint" />
            <mxPoint x="3250" y="320" as="targetPoint" />
          </mxGeometry>
        </mxCell>
        <mxCell id="qsOcGmcsThObNX1l_5kZ-105" value="" style="endArrow=none;html=1;rounded=0;" edge="1" parent="1" source="qsOcGmcsThObNX1l_5kZ-87">
          <mxGeometry width="50" height="50" relative="1" as="geometry">
            <mxPoint x="3070" y="321" as="sourcePoint" />
            <mxPoint x="3170" y="510" as="targetPoint" />
          </mxGeometry>
        </mxCell>
        <mxCell id="qsOcGmcsThObNX1l_5kZ-106" value="" style="endArrow=none;html=1;rounded=0;entryX=0;entryY=0.5;entryDx=0;entryDy=0;" edge="1" parent="1" source="qsOcGmcsThObNX1l_5kZ-87" target="qsOcGmcsThObNX1l_5kZ-95">
          <mxGeometry width="50" height="50" relative="1" as="geometry">
            <mxPoint x="3080" y="331" as="sourcePoint" />
            <mxPoint x="3270" y="340" as="targetPoint" />
          </mxGeometry>
        </mxCell>
        <mxCell id="qsOcGmcsThObNX1l_5kZ-107" value="" style="rounded=1;whiteSpace=wrap;html=1;" vertex="1" parent="1">
          <mxGeometry x="3590" y="130" width="260" height="540" as="geometry" />
        </mxCell>
        <mxCell id="qsOcGmcsThObNX1l_5kZ-108" value="User&lt;div&gt;&lt;br&gt;&lt;/div&gt;" style="shape=umlActor;verticalLabelPosition=bottom;verticalAlign=top;html=1;outlineConnect=0;" vertex="1" parent="1">
          <mxGeometry x="3470" y="400" width="30" height="60" as="geometry" />
        </mxCell>
        <mxCell id="qsOcGmcsThObNX1l_5kZ-109" value="&lt;span style=&quot;font-size: 18px;&quot;&gt;Orders&lt;/span&gt;" style="rounded=0;whiteSpace=wrap;html=1;" vertex="1" parent="1">
          <mxGeometry x="3660" y="130" width="120" height="60" as="geometry" />
        </mxCell>
        <mxCell id="qsOcGmcsThObNX1l_5kZ-110" value="&lt;span style=&quot;font-size: 18px;&quot;&gt;Create&lt;/span&gt;" style="ellipse;whiteSpace=wrap;html=1;" vertex="1" parent="1">
          <mxGeometry x="3660" y="210" width="120" height="80" as="geometry" />
        </mxCell>
        <mxCell id="qsOcGmcsThObNX1l_5kZ-111" value="&lt;div&gt;Manager&lt;/div&gt;" style="shape=umlActor;verticalLabelPosition=bottom;verticalAlign=top;html=1;outlineConnect=0;" vertex="1" parent="1">
          <mxGeometry x="3470" y="580" width="30" height="60" as="geometry" />
        </mxCell>
        <mxCell id="qsOcGmcsThObNX1l_5kZ-112" value="&lt;div&gt;Admin&lt;/div&gt;" style="shape=umlActor;verticalLabelPosition=bottom;verticalAlign=top;html=1;outlineConnect=0;" vertex="1" parent="1">
          <mxGeometry x="3470" y="220" width="30" height="60" as="geometry" />
        </mxCell>
        <mxCell id="qsOcGmcsThObNX1l_5kZ-113" value="&lt;span style=&quot;font-size: 18px;&quot;&gt;Edit&lt;/span&gt;" style="ellipse;whiteSpace=wrap;html=1;" vertex="1" parent="1">
          <mxGeometry x="3660" y="300" width="120" height="80" as="geometry" />
        </mxCell>
        <mxCell id="qsOcGmcsThObNX1l_5kZ-114" value="&lt;span style=&quot;font-size: 18px;&quot;&gt;Delete&lt;/span&gt;" style="ellipse;whiteSpace=wrap;html=1;" vertex="1" parent="1">
          <mxGeometry x="3660" y="390" width="120" height="80" as="geometry" />
        </mxCell>
        <mxCell id="qsOcGmcsThObNX1l_5kZ-115" value="&lt;span style=&quot;font-size: 18px;&quot;&gt;Read_all&lt;/span&gt;" style="ellipse;whiteSpace=wrap;html=1;" vertex="1" parent="1">
          <mxGeometry x="3660" y="480" width="120" height="80" as="geometry" />
        </mxCell>
        <mxCell id="qsOcGmcsThObNX1l_5kZ-116" value="&lt;span style=&quot;font-size: 18px;&quot;&gt;Read_one&lt;/span&gt;" style="ellipse;whiteSpace=wrap;html=1;" vertex="1" parent="1">
          <mxGeometry x="3660" y="570" width="120" height="80" as="geometry" />
        </mxCell>
        <mxCell id="qsOcGmcsThObNX1l_5kZ-117" value="" style="endArrow=none;html=1;rounded=0;entryX=0;entryY=0.5;entryDx=0;entryDy=0;" edge="1" parent="1" source="qsOcGmcsThObNX1l_5kZ-112" target="qsOcGmcsThObNX1l_5kZ-110">
          <mxGeometry width="50" height="50" relative="1" as="geometry">
            <mxPoint x="3670" y="420" as="sourcePoint" />
            <mxPoint x="3720" y="370" as="targetPoint" />
          </mxGeometry>
        </mxCell>
        <mxCell id="qsOcGmcsThObNX1l_5kZ-118" value="" style="endArrow=none;html=1;rounded=0;entryX=0;entryY=0.5;entryDx=0;entryDy=0;" edge="1" parent="1" source="qsOcGmcsThObNX1l_5kZ-112" target="qsOcGmcsThObNX1l_5kZ-113">
          <mxGeometry width="50" height="50" relative="1" as="geometry">
            <mxPoint x="3480" y="251" as="sourcePoint" />
            <mxPoint x="3670" y="260" as="targetPoint" />
          </mxGeometry>
        </mxCell>
        <mxCell id="qsOcGmcsThObNX1l_5kZ-119" value="" style="endArrow=none;html=1;rounded=0;entryX=0;entryY=0.5;entryDx=0;entryDy=0;" edge="1" parent="1" source="qsOcGmcsThObNX1l_5kZ-112" target="qsOcGmcsThObNX1l_5kZ-114">
          <mxGeometry width="50" height="50" relative="1" as="geometry">
            <mxPoint x="3490" y="261" as="sourcePoint" />
            <mxPoint x="3680" y="270" as="targetPoint" />
          </mxGeometry>
        </mxCell>
        <mxCell id="qsOcGmcsThObNX1l_5kZ-120" value="" style="endArrow=none;html=1;rounded=0;entryX=0;entryY=0.5;entryDx=0;entryDy=0;" edge="1" parent="1" source="qsOcGmcsThObNX1l_5kZ-112" target="qsOcGmcsThObNX1l_5kZ-115">
          <mxGeometry width="50" height="50" relative="1" as="geometry">
            <mxPoint x="3500" y="271" as="sourcePoint" />
            <mxPoint x="3690" y="280" as="targetPoint" />
          </mxGeometry>
        </mxCell>
        <mxCell id="qsOcGmcsThObNX1l_5kZ-121" value="" style="endArrow=none;html=1;rounded=0;entryX=0;entryY=0.5;entryDx=0;entryDy=0;" edge="1" parent="1" source="qsOcGmcsThObNX1l_5kZ-112" target="qsOcGmcsThObNX1l_5kZ-116">
          <mxGeometry width="50" height="50" relative="1" as="geometry">
            <mxPoint x="3510" y="281" as="sourcePoint" />
            <mxPoint x="3700" y="290" as="targetPoint" />
          </mxGeometry>
        </mxCell>
        <mxCell id="qsOcGmcsThObNX1l_5kZ-122" value="" style="endArrow=none;html=1;rounded=0;entryX=0;entryY=0.5;entryDx=0;entryDy=0;" edge="1" parent="1" source="qsOcGmcsThObNX1l_5kZ-111" target="qsOcGmcsThObNX1l_5kZ-116">
          <mxGeometry width="50" height="50" relative="1" as="geometry">
            <mxPoint x="3520" y="291" as="sourcePoint" />
            <mxPoint x="3710" y="300" as="targetPoint" />
          </mxGeometry>
        </mxCell>
        <mxCell id="qsOcGmcsThObNX1l_5kZ-123" value="" style="endArrow=none;html=1;rounded=0;entryX=0;entryY=0.5;entryDx=0;entryDy=0;" edge="1" parent="1" source="qsOcGmcsThObNX1l_5kZ-108" target="qsOcGmcsThObNX1l_5kZ-110">
          <mxGeometry width="50" height="50" relative="1" as="geometry">
            <mxPoint x="3530" y="301" as="sourcePoint" />
            <mxPoint x="3720" y="310" as="targetPoint" />
          </mxGeometry>
        </mxCell>
        <mxCell id="qsOcGmcsThObNX1l_5kZ-124" value="" style="endArrow=none;html=1;rounded=0;entryX=0;entryY=0.5;entryDx=0;entryDy=0;" edge="1" parent="1" source="qsOcGmcsThObNX1l_5kZ-108" target="qsOcGmcsThObNX1l_5kZ-113">
          <mxGeometry width="50" height="50" relative="1" as="geometry">
            <mxPoint x="3540" y="311" as="sourcePoint" />
            <mxPoint x="3730" y="320" as="targetPoint" />
          </mxGeometry>
        </mxCell>
        <mxCell id="qsOcGmcsThObNX1l_5kZ-125" value="" style="endArrow=none;html=1;rounded=0;entryX=0;entryY=0.5;entryDx=0;entryDy=0;" edge="1" parent="1" source="qsOcGmcsThObNX1l_5kZ-108" target="qsOcGmcsThObNX1l_5kZ-114">
          <mxGeometry width="50" height="50" relative="1" as="geometry">
            <mxPoint x="3550" y="321" as="sourcePoint" />
            <mxPoint x="3740" y="330" as="targetPoint" />
          </mxGeometry>
        </mxCell>
        <mxCell id="qsOcGmcsThObNX1l_5kZ-126" value="" style="endArrow=none;html=1;rounded=0;entryX=0;entryY=0.5;entryDx=0;entryDy=0;" edge="1" parent="1" source="qsOcGmcsThObNX1l_5kZ-108" target="qsOcGmcsThObNX1l_5kZ-116">
          <mxGeometry width="50" height="50" relative="1" as="geometry">
            <mxPoint x="3560" y="331" as="sourcePoint" />
            <mxPoint x="3750" y="340" as="targetPoint" />
          </mxGeometry>
        </mxCell>
      </root>
    </mxGraphModel>
  </diagram>
</mxfile>
